<svg id="Layer_1" data-name="Layer 1" xmlns="http://www.w3.org/2000/svg" viewBox="0 0 184.45 317.64"><defs><style>.cls-1{fill:#1e1e1c;}.cls-2{fill:#e62f27;}</style></defs><title>Untitled-1</title><path class="cls-1" d="M371,206.05c8.61,6.41,17.93,23.51,19.13,34,.19,1.67,1.66,3.56,3.63,2.85,12.34-4.46,21.23,0,28.64,10.21a3,3,0,0,0,5.35-.61c5.59-12.88,15.68-22.56,30.47-18,3.59,1.1,5.19-4.5,1.61-5.6-18.1-5.56-30.8,6.17-37.68,22l5.34-.61c-8.78-12.13-20.44-18.36-35.17-13l3.63,2.84C394.41,227,384.66,209,374,201.08c-3-2.24-6,2.75-3,5Z" transform="translate(-328.72 -138.82)"/><path class="cls-1" d="M493.94,164.36c10.07,19.51,8.14,40.9,6.45,62s2.12,41.69,4.77,62.69c2.51,19.86,2.25,40.3,1.94,60.31-.26,17.61-1.33,35.53-6.25,52.52-5,17.4-14.84,33.34-31.64,41.4-19.16,9.19-43.81,9.62-63.56,2.13-28.67-10.86-52.33-40.36-57.81-70.53-5.15-28.28-9.82-57.24-12.15-85.89-2.14-26.36-3.95-59.53,10.54-82.92,2-3.19-3-6.22-5-3-12.76,20.6-13.13,48.16-12.25,71.63,1.08,29.06,6.4,57.75,10.88,86.42,2.52,16.13,5.41,30.08,13.53,44.44,8.8,15.52,21.16,29.4,36.52,38.66,32,19.26,82.15,17,104.94-15.47,21.64-30.84,18.26-74.14,17.88-109.86-.31-29.42-8.78-58.54-6.89-87.94,1.54-23.8,4.54-47.37-6.84-69.42-1.73-3.33-6.81-.5-5.09,2.83Z" transform="translate(-328.72 -138.82)"/><path class="cls-1" d="M461.28,231.1c-8.85-21-1.94-43.78,5.54-64.09,1.3-3.51-4.31-5.1-5.6-1.6-8.12,22-14.56,45.88-5,68.51,1.45,3.45,6.53.6,5.09-2.82Z" transform="translate(-328.72 -138.82)"/><path class="cls-2" d="M358.46,186.58c-3.82,2.5-8.49,9.86-10.52,13.86s-4.89,16.93-4.62,21.43c11.79,9.34,23.62,11.64,32.77-1.46.22-11.63-10.55-27.18-17.63-33.83" transform="translate(-328.72 -138.82)"/><path class="cls-1" d="M357.12,185.17c-9,6.93-13.05,18.12-14.93,28.89-.52,3-1.75,6.93.12,9.46,2.9,3.94,11,7,15.7,7.72,7.87,1.19,20.76-4.32,19.85-13.64-1.18-12.08-9.53-24.08-18-32.36-1.78-1.75-4.59.93-2.8,2.68a62.93,62.93,0,0,1,15.31,23.21c2.13,6,1.82,10.84-4.18,14.43-4.24,2.55-8.91,2.44-13.46.83-2.73-1-8.37-3.44-9.44-6.25-.93-2.43,1.36-8.85,2-11.39,2-7.83,6-15.74,12.52-20.77,2-1.53-.72-4.32-2.68-2.81Z" transform="translate(-328.72 -138.82)"/><path class="cls-2" d="M479.59,140.73c-3.82,2.5-8.49,9.86-10.52,13.86s-4.89,16.93-4.62,21.43c11.79,9.33,23.62,11.64,32.77-1.46.21-11.63-10.55-27.18-17.63-33.83" transform="translate(-328.72 -138.82)"/><path class="cls-1" d="M478.25,139.32c-9,6.93-13.05,18.12-14.93,28.89-.52,3-1.75,6.93.12,9.46,2.9,3.94,11,7,15.7,7.72,7.87,1.19,20.76-4.32,19.85-13.64-1.18-12.08-9.53-24.08-18-32.36-1.78-1.75-4.59.93-2.8,2.68a62.7,62.7,0,0,1,15.3,23.21c2.14,6,1.83,10.84-4.17,14.43-4.24,2.55-8.91,2.44-13.46.83-2.74-1-8.37-3.44-9.44-6.25-.93-2.43,1.35-8.85,2-11.39,2-7.83,6-15.74,12.52-20.77,2-1.53-.72-4.32-2.68-2.81Z" transform="translate(-328.72 -138.82)"/><path class="cls-1" d="M423.55,249.92c.13,8,.68,15.93.54,23.87-.08,4.65-.7,10.31,2.09,14.36,1.41,2,4.82.17,3.4-1.89-2.86-4.14-1.51-10.7-1.56-15.5-.07-6.93-.47-13.87-.59-20.8,0-2.49-3.92-2.55-3.88,0Z" transform="translate(-328.72 -138.82)"/><path class="cls-1" d="M392.76,235.89c-10.81,12.59-6.4,30.4-4.09,45.28.39,2.47,4.15,1.5,3.76-1-2-13.1-6.61-30.31,3-41.52,1.62-1.88-1.05-4.7-2.68-2.8Z" transform="translate(-328.72 -138.82)"/><path class="cls-1" d="M456.2,231.53c2.16,5.52,5.14,10.76,6.62,16.52,1.77,7,1.71,14.3,1.64,21.43,0,2.49,3.85,2.54,3.88,0,.07-6.69,0-13.48-1.25-20.07s-4.66-12.57-7.13-18.88c-.9-2.29-4.68-1.36-3.76,1Z" transform="translate(-328.72 -138.82)"/><path class="cls-1" d="M345.84,238.59c9.06,5.18,18.12,2.74,26.83-2,2.2-1.18.31-4.58-1.89-3.39-7.43,4-15.06,6.52-22.91,2-2.17-1.24-4.2,2.07-2,3.31Z" transform="translate(-328.72 -138.82)"/><path class="cls-1" d="M351.86,249.83c6.12,5.92,12.42.86,19.21-.57,2.45-.51,1.49-4.27-1-3.76-4.84,1-11.05,5.89-15.44,1.65-1.8-1.74-4.61.94-2.81,2.68Z" transform="translate(-328.72 -138.82)"/><path class="cls-1" d="M438.57,263.13c5.41,4.53,12.26.76,17.19-2.68,2-1.42.16-4.83-1.88-3.4-3,2.11-8.91,6.41-12.5,3.4-1.9-1.59-4.72,1.08-2.81,2.68Z" transform="translate(-328.72 -138.82)"/><path class="cls-1" d="M440.79,278a17.73,17.73,0,0,0,7.42,1,12.46,12.46,0,0,0,6.57-3.47c1.86-1.67-.83-4.47-2.68-2.8-3.26,2.93-6.24,2.72-10.24,1.53-2.39-.71-3.46,3-1.07,3.73Z" transform="translate(-328.72 -138.82)"/><path class="cls-1" d="M403.11,268.16c2.83,3.29,6.81,2.89,10.63,1.83,2.4-.68,1.45-4.44-1-3.76s-5,1.42-6.86-.75c-1.64-1.91-4.43.79-2.81,2.68Z" transform="translate(-328.72 -138.82)"/><path class="cls-1" d="M468.41,197.85c4.25,9.35,19.32,2.76,23.73-3.2,1.48-2-1.84-4-3.32-2-2.78,3.77-14.24,9.46-17,3.35-1-2.28-4.42-.38-3.39,1.88Z" transform="translate(-328.72 -138.82)"/><path class="cls-1" d="M473.15,212.3c4.53,4.06,11.42,2.42,16.06-.64,2.08-1.36.21-4.77-1.88-3.39-2.95,1.94-8.28,4.12-11.37,1.35-1.85-1.66-4.67,1-2.81,2.68Z" transform="translate(-328.72 -138.82)"/><path class="cls-1" d="M347.39,387.66c14.76,12.82,37.12,9.73,53.17.94,2.19-1.2.31-4.59-1.88-3.39-14.3,7.82-35.14,11.36-48.48-.24-1.87-1.62-4.69,1-2.81,2.69Z" transform="translate(-328.72 -138.82)"/><path class="cls-1" d="M364,418.54c10.38,3.63,23.44-2.28,31.49-8.75,1.95-1.56-.74-4.35-2.68-2.8-7,5.63-18.73,11-27.74,7.82-2.36-.83-3.42,2.91-1.07,3.73Z" transform="translate(-328.72 -138.82)"/><path class="cls-1" d="M505.4,335.86c-9.85,9.76-21.16,18.57-34.48,22.93-2.36.77-1.43,4.54,1,3.76,14-4.57,25.86-13.65,36.2-23.88,1.78-1.76-.91-4.57-2.68-2.81Z" transform="translate(-328.72 -138.82)"/><path class="cls-1" d="M508.11,351.25c-1.72,5.16-8.08,9.08-12.49,11.68s-10.32,5.87-15.73,5.21c-2.47-.3-2.49,3.58,0,3.88,6.4.79,13.49-3.11,18.72-6.35s11.28-7.39,13.26-13.35c.79-2.37-2.94-3.43-3.73-1.07Z" transform="translate(-328.72 -138.82)"/><path class="cls-1" d="M507.62,368.22c-8.2,5.61-15.82,12.37-26.35,12.19-2.49,0-2.54,3.84,0,3.88,11.3.19,19.42-6.62,28.27-12.68,2.05-1.4.18-4.8-1.88-3.39Z" transform="translate(-328.72 -138.82)"/></svg>