<?xml version="1.0" encoding="utf-8"?>
<!-- Generator: Adobe Illustrator 22.1.0, SVG Export Plug-In . SVG Version: 6.00 Build 0)  -->
<svg version="1.1" id="Layer_1" xmlns="http://www.w3.org/2000/svg" xmlns:xlink="http://www.w3.org/1999/xlink" x="0px" y="0px"
	 viewBox="0 0 1600 417" style="enable-background:new 0 0 1600 417;" xml:space="preserve">
<style type="text/css">
	.st0{fill:#E62F27;}
	.st1{fill:#1E1E1C;}
	.st2{fill:#2D2D2D;}
</style>
<path class="st0" d="M1076.9,377.6c-1.2,4.9-3.1,9.1-5.4,12.9c0.4,2.8-0.3,5.9-1.8,8.5l0,0c-1.6,2.9-4.2,5.3-7.3,6.3
	c-0.6,0.2-1.2,0.3-1.9,0.4c-3.9,0.5-7.7,0.9-11.6,1.4c-0.2,0-0.4,0-0.7,0c-4.8,2.3-9.6,6.1-13.8,8.3c-0.4,0.2-0.7,0.4-1.1,0.5
	c-0.8,0.4-1.6,0.7-2.3,1v0.3H924c0.3-6.2,1.9-12.4,4.6-18.1l0.1-0.1c2.6-18,9-34.5,21.7-46.8c1.4-2.9,3.2-5.7,5.4-7.9
	c2-4.2,4.4-8.1,7.1-11.8c0.9-2.7,2.6-5,5.2-6.6c1.7-1.1,3.9-1.7,6-1.7c0.1,0,0.2,0,0.3,0c2,0,4.1,0.6,5.7,1.8
	c4.4,3.2,6.3,8.3,5.1,13.4c0.8,0.7,1.5,1.5,2,2.5c0.5,0.8,0.9,1.7,1.2,2.6c0.4,1,0.7,2.1,1.1,3.2c2.3-1.5,4.6-2.8,7-4.1
	c0.9-0.5,1.8-1,2.8-1.5c7.5-15.7,27.7-28.4,40-35.4c5.4-3.1,12.8-7.6,20-8.9c3.7-0.7,7.3-0.5,10.5,1.2c0.2,0.1,0.3,0.2,0.5,0.3
	c7.8,4.6,6.8,12.3,4.6,19.6c0.4,1.2,0.6,2.5,0.6,3.8c0.1,3.4-1,6.7-3.7,9c-1.1,1-2.6,1.8-4.3,2.3c-1.4,0.4-2.7,0.5-3.9,0.5
	c-0.5,0.4-1.1,0.8-1.8,1.2c-3.6,1.9-7.2,3.8-10.7,5.7c-0.5,0.7-1.1,1.3-1.8,1.9c-7.7,6.8-14.9,14-21.7,21.6c-1.7,1.9-3.4,3.9-5,5.9
	c3.8-0.1,7.5-0.5,11.3-1.2c1.2-0.2,2.4-0.4,3.5-0.7c9.7-2.1,18.4-6,28.4-6.5l0,0c3.5-0.2,6.5,1.6,8.5,4.2
	C1076.8,369.7,1077.8,373.8,1076.9,377.6z"/>
<path class="st0" d="M1055.3,100.6c-8.3-11.7-26.8-13.1-39.3-11.7c-12.8,1.5-39.1,15.6-53.5,10.5c-1.6-7.6-2.9-15.2-5.1-22.8
	C953.5,63,942,56.2,928.9,57.1c-13.2,0.9-22.3,10.5-23.8,24.3c-0.8,7.4-0.3,15.3,0.8,22.6c1.2,7.6,5.6,14.7,6.2,22.3
	c0,0.2,0.1,0.5,0.1,0.7c-7.2,11.8-16.8,22.8-21.5,36c-0.3,0.9-0.5,1.8-0.7,2.7c-2.2,2.2-3.9,5.3-4.8,9.4c-3.5,16.7,9.3,28.7,21.4,36
	c11.4,6.9,32.3,17.3,43.1,4.2c4.5-5.5,4.9-12.5,5.7-19.4c0-0.3,0.1-0.7,0.1-1c18.8-23.3,43-41.1,70.1-51.9c4.4-1.8,6.7-5.5,7.4-9.4
	c4.9-0.9,9.7-2.4,14.2-4.9C1057.6,123.1,1062.9,111.4,1055.3,100.6z"/>
<path class="st0" d="M778.1,233.4c-0.5-0.5-1.1-1-1.8-1.4c-0.2-0.2-0.3-0.4-0.5-0.6c-0.7-0.7-1.6-1.3-2.5-1.7
	c-3-11.5-11.1-20.1-18.9-28.9c-2.1-13.3-2.9-26.6-2.8-40c0-0.8-0.1-1.5-0.3-2.2c3.4-4.2,3.1-9.2,0.9-13c0.2-0.6,0.3-1.2,0.3-1.8
	c-0.1-2.8-2.1-5.1-4.8-5.1h-0.4c-1,0-1.9,0.3-2.7,0.9c-3.2-0.8-6.8-0.1-9.9,3.1c-1.4,1.5-2.6,3-3.8,4.6c-1.4,0.3-2.8,1-4.3,2.2
	c-10.6,8.6-23.7,12.4-34,21.5c-2.2,1.9-4.3,3.9-6.4,5.9c-3.8-6.9-9.3-12.4-15-17.5c-7.2-6.4-15.1-14.1-23.8-19c-3.4-5-7-9.9-11-14.4
	c-5.8-6.4-13.9-15.4-23.1-13.4c-10.2,2.2-20.2,16.6-27.6,23.5c-6.9,6.5-2.3,16.9,5,19.9c4.8,1.9,9.5,3.9,14,6
	c-10.3,1.4-20.4,3.5-29,7.2c-3,1.3-5,3.6-6.2,6.1c-4.6-1.8-9.8-0.9-12.3,5c-5.1,12.2-2.9,31.6,6.5,42.3c0.3,0.5,0.5,1,0.8,1.6
	c2.2,4.2,6.6,5.9,10.8,5.5c1.1,0.2,2.1,0.4,3.3,0.5c12.5,0.7,26-8.5,37.6-12.6c11.4-4.1,23-7.3,34.7-9.9c-3.7,7.6-7,15.3-10,23.2
	c-15.5,21.6-25.3,49.5-30.6,75.1c-0.6,0.5-1.1,1-1.7,1.7c-3.5,4.5-6.3,9.1-8.5,14.5c-1,2.5-1.9,4.9-2.6,7.5
	c-0.4,1.4-0.8,2.8-1.2,4.3v0.1c-3.7,1.6-6,6.1-5.7,10.2c-0.6,0.4-1.1,0.8-1.7,1.2c-2.9,1.8-4.2,6.2-2.3,9.3s5.7,4.3,8.8,2.4
	c1.9-1.2,3.8-2.4,5.7-3.8c0.6,0,1.2-0.1,1.7-0.1c0.9-0.1,1.7-0.3,2.4-0.6c11.2-2.9,21.8-8,31.1-15.1c0.8-0.6,1.4-1.3,2-2
	c1.7-0.3,3.5-0.9,5-2c6-2.1,11.1-4.7,15.1,2.7c3.1,5.7,2.7,13.3,3.8,19.5c1.1,6.6,3.4,11.5,7.4,16.6c1,1.3,2.1,2.1,3.2,2.7
	c0.7,0.9,1.4,1.9,2.3,2.8c0.7,0.7,1.4,1.3,2.1,1.8c0.3,0.8,0.6,1.6,0.9,2.5c0.4,1.4,1,2.5,1.7,3.4c0,0.1,0,0.2,0,0.3
	c1.1,9.1,8.4,14.2,16.8,13.1c3.5-0.5,8.1-1.2,10.7-4c2.6-2.9,2.5-7.9,2.5-12c1.3-2.1,1.9-4.8,1.2-7.9c-0.2-0.9-0.4-1.8-0.5-2.7
	c4.9-14.9,9.3-30.3,14.5-45.1c5.8-6.5,9.9-14.2,12.6-22.8c0.5-1.6,0.6-3,0.5-4.4c6.9-10.5,13.4-21.2,19.1-32.5c0.9-1,1.8-2,2.8-3
	c1.4-1.4,2.2-2.9,2.6-4.5c3.1-2.7,6-5.5,8.3-8.9c2.8-0.1,5.5-1.2,7.4-3.4C781.5,243.9,782.1,237.3,778.1,233.4z"/>
<path class="st0" d="M890.9,405.4c-8.1,2.3-14.3,6.4-19.1,11.9h-4.7c5.9-7.4,14-12.7,23-15.2C892.1,401.5,892.9,404.8,890.9,405.4z"
	/>
<path class="st0" d="M892,349.5c-5,20.2-29.2,24.6-34.4,44.1c-2.1,8-0.5,15.8,1.1,23.7H856c-1.9-9-4-18.1-0.7-27
	c6.5-18,28.9-22.5,33.6-41.7C889.4,346.5,892.5,347.4,892,349.5z"/>
<path class="st0" d="M914.5,412.6c-0.7,1.6-1.5,3.2-2.3,4.7h-3.7c1.2-2.1,2.3-4.2,3.3-6.4C912.7,408.9,915.4,410.6,914.5,412.6z"/>
<path class="st1" d="M785.2,162.1c-0.4-1.2-1.1-2.1-1.9-2.7c-1.4-4-3.1-7.7-5.5-11.3c-1.4-2.1-3.5-2.6-5.3-2.1
	c-3.1-5.1-7-9.6-12-13.3c-3.1-2.3-7.2,0.8-7.2,4.4c0,4.2,0,8.4,0,12.6c-1.5,7.5-1.5,14.9,0,22.4c-0.1,0.3-0.2,0.6-0.2,1
	c-0.8,18.8,6.8,34.4,17.2,48.5c-0.2,1.1-0.1,2.2,0.5,3.4c2.7,5.5,5.9,9,10.7,12.3c2.8,2,6-0.2,7.1-3
	C797.4,210.4,792.6,185.7,785.2,162.1z"/>
<path class="st1" d="M1039.6,189c-1.2-1.2-3-1.4-5.7-0.4c-0.6-3.6-5-6.5-8.1-3c-22,24.8-25.7,70.6-20.2,102.5c0.9,5.3,7.9,4.4,9.3,0
	c0.5-1.6,1-3.3,1.6-4.9c9.1-0.8,13.9-13.7,17.1-23.4c5.2-9.1,8.8-18.9,10.1-29.8c0.4-3.3,1-8.7,0.9-14c0.9-7.4,1.4-14.8,1.5-22.4
	C1046.1,189.3,1042.4,187.8,1039.6,189z"/>
<path class="st1" d="M692.9,183.9c20.3-15.4,39.4-32.1,62.1-43.8c1.9-1,3.6-3.6,3.3-5.8c-3.9-31.3-22.5-72.3,17.1-86.8
	c12.9-4.7,26.9-6.6,40.5-8.2c4.5-0.5,12.6-2.6,16.3,1c3.3,3.1,1.5,19.8,1.8,24.1c1.3,25.6,1.5,56.8,14.2,79.8
	c6.1,11.1,17.7,32.1,29.6,38c7.8,3.9,14.6-7.8,6.8-11.7c-9.5-4.7-19.8-23.9-24.8-33.2c-12-22.3-11.4-52.1-12.6-76.8
	c-0.5-10.1,1.4-26-8.1-32.9c-8.9-6.4-24.2-1.9-33.9-0.5C778,31,743.8,38,737.6,69.3c-1.7,8.5-1.1,17,0,25.5
	c1.1,8.6,6.8,20.7,5.6,28.9c-1.8,12-17.6,17.9-27.1,25c-10.1,7.6-19.9,15.8-30,23.4C679.3,177.5,686,189.2,692.9,183.9L692.9,183.9z
	"/>
<path class="st1" d="M888.9,179.3c13.4-19.2,35-39.2,30.7-64.1c-2-11.4-8.6-27.1-5.5-38.6c3.6-13.6,25.4-14.7,37.4-11
	c8.3,2.5,11.9-10.5,3.6-13c-15.7-4.8-46.7-2.9-53,15.4c-3.8,11-0.5,24.8,1.3,35.9c2.5,14.9,4.5,21.8-3.8,35.6
	c-6.8,11.2-14.8,22.3-22.3,33C872.2,179.6,883.9,186.4,888.9,179.3L888.9,179.3z"/>
<path class="st1" d="M949.5,65c7.2,9.1,8.4,23.1,9.2,34.2c0.6,8.6,14.1,8.7,13.5,0c-1.1-15.2-3.3-31.4-13.1-43.7
	C953.6,48.7,944.1,58.3,949.5,65L949.5,65z"/>
<path class="st1" d="M968.3,105.7c18.5-7,36.7-14.3,56.8-15c9.9-0.3,19.1,0,22.3,11.2c2.7,9.4,3.1,19.5,2.5,29.2
	c-0.5,8.7,13,8.7,13.5,0c1-17.3,0.3-46.9-20.1-52.8c-25.4-7.3-55.4,5.7-78.6,14.4C956.7,95.7,960.2,108.8,968.3,105.7L968.3,105.7z"
	/>
<path class="st1" d="M1053.8,123.4c-23.8,6.2-48.9,13.4-68.9,28.3c-18.4,13.8-28.9,34.1-39.8,53.9c-4.2,7.6,7.5,14.4,11.7,6.8
	c9.2-16.7,18-34.9,32.9-47.4c18.8-15.8,44.5-22.5,67.7-28.6C1065.8,134.2,1062.2,121.2,1053.8,123.4L1053.8,123.4z"/>
<path class="st1" d="M949.8,219.2c16.4,0,32.3-10.7,46.7-17.4c8.9-4.2,22.2-12,32.6-11.1c20.3,1.7,10.8,34.1,8.1,46.5
	c-4,17.9-8.2,32.8-23.7,44.4c-9.6,7.2-21,11.7-30.5,19c-21.3,16.2-4.5,25.9,0.4,45.9c2.1,8.4,15.1,4.9,13-3.6
	c-1.5-6.1-5.6-10.3-7.5-16c-5-14.8,5.6-17.5,16.3-23.9c10.9-6.5,22.1-13.4,30.2-23.4c15-18.6,24.8-60.4,18-83.7
	c-13.9-47.7-77.9,9.9-103.6,9.9C941.2,205.7,941.1,219.2,949.8,219.2L949.8,219.2z"/>
<path class="st1" d="M996.3,352.2c9.6-12.3,21.3-21.4,33.6-30.8c9.9-7.6,21.9-19,35-19.8c8.6-0.5,8.7-14,0-13.5
	c-14.8,0.8-26.8,10.1-38.1,18.7c-14.4,11-28.8,21.4-40,35.8C981.5,349.4,991,359,996.3,352.2L996.3,352.2z"/>
<path class="st1" d="M1060,299.3c5.8,9,11.5,18.9,11.5,29.9c-0.1,8.7,13.4,8.7,13.5,0c0.1-13.4-6.2-25.7-13.3-36.7
	C1067,285.2,1055.3,292,1060,299.3L1060,299.3z"/>
<path class="st1" d="M1074.9,323.4c-18.9,14.5-41.4,24.1-55.8,43.8c-5.1,7,6.6,13.8,11.7,6.8c12.8-17.5,34.1-26.1,51-39
	C1088.5,329.8,1081.8,318.1,1074.9,323.4L1074.9,323.4z"/>
<path class="st1" d="M1024.8,380.2c15-4.7,30.1-10.7,45.9-11.9c8.6-0.7,8.7-14.2,0-13.5c-17.1,1.3-33.2,7.3-49.5,12.4
	C1012.9,369.8,1016.5,382.8,1024.8,380.2L1024.8,380.2z"/>
<path class="st1" d="M1067.8,368.3c7,7.9-0.9,24.4-4.9,32.2c-3.9,7.7,7.8,14.6,11.7,6.8c7.1-14.2,14.9-35,2.8-48.6
	C1071.5,352.3,1062,361.9,1067.8,368.3L1067.8,368.3z"/>
<path class="st1" d="M1071.1,410.6c-1.1,0.8-2.5,1.3-4.3,1.2c-6.7-0.5-12.6,2.4-18.4,5.6H1023c0-0.9,0.1-1.7,0.4-2.4
	c0.7-1.6,2.1-2.9,4.4-3.3c13.1-2.2,22.6-13,36.2-13.4c0.9,0,1.8,0,2.8,0c1.1,0.1,2,0.4,2.8,0.8l0,0l0,0
	C1074,401.3,1074.5,407.8,1071.1,410.6z"/>
<path class="st1" d="M1035.2,417.3h-13.1c0.2-1,0.7-1.8,1.2-2.4c2.7-3.2,8.6-3,11,0.6C1034.8,416,1035.1,416.6,1035.2,417.3z"/>
<path class="st1" d="M652.5,215.7c-3.7,11.2-10.7,20.7-15.9,31.2c-7.4,14.9-12.8,31-18.5,46.5c-6.9,18.8-11.9,41.1-23.9,57.9
	c-1.5,2.2-3.2,4.2-5,6.2c-0.7,0.7-1.3,1.4-2,2.1c-1,0.9-1.9,1.8-2.9,2.7c-10.1,9-21.2,14.8-28.2,27.7c-4.7,8.5-7.5,17.8-8.9,27.4
	h-14c2.2-15.5,7.4-30.2,17.2-43.3c9.6-12.8,24.9-18.9,33.9-32c9.1-13.3,13-29.9,18.3-44.9c6.1-17,12.1-34.3,19.6-50.7
	c3.9-8.6,9.4-16.6,13.6-25.1c1.5-3,2.8-6,3.8-9.2c0.2-0.7,0.5-1.3,0.9-1.8c1.7-2.6,4.9-3.3,7.6-2.6c0.4,0.1,0.8,0.3,1.3,0.5l0,0
	c0.4,0.2,0.8,0.4,1.2,0.7c0.3,0.2,0.6,0.5,0.9,0.8c0.8,0.8,1.4,1.9,1.5,3.1C652.9,213.6,652.8,214.6,652.5,215.7z"/>
<path class="st1" d="M643.2,204.3c-15.4,5.9-31,9.4-46.1,16.3c-10.1,4.5-23.1,12-32,1.4c-7.7-9.1-7.2-24.9-7.3-36.1
	c-0.1-8.7-13.6-8.7-13.5,0c0.2,18,2.2,49.5,24.2,54.9c9.8,2.4,20.8-2.1,29.5-5.8c16.2-7,32.6-11.4,48.9-17.7
	C654.8,214.3,651.3,201.2,643.2,204.3L643.2,204.3z"/>
<path class="st1" d="M557.5,186c1.2-6.9,18.8-9.3,24.5-11c11.6-3.3,21.9-6.5,33.2-1c7.8,3.8,14.6-7.8,6.8-11.7
	c-15.7-7.8-29.4-4.4-45.7,0.2c-10.8,3-29.5,6.3-31.8,19.8C543,190.9,556,194.6,557.5,186L557.5,186z"/>
<path class="st1" d="M622,162.4c-6.9-3.8-14.1-5.6-21.5-8.2c-4.9-1.7-8.8-3.6-13.1-6.6c-1.2-0.9-2.3-1.8-3.5-2.7
	c-2-1.5-2-1.1-0.3,1.1c1.1,2.9,1.8,2.7,2-0.7c0.9-2,2.1-3.9,3.4-5.6c1.6-2.3,3.5-4.5,5.2-6.8c4.8-6.4,9.7-15,18.3-16.3
	c8.6-1.4,4.9-14.4-3.6-13c-10.3,1.6-17,10-22.9,17.9c-5.4,7.3-12.6,14.6-14.5,23.8c-1.5,7.7,3.5,10.2,9.3,14.2
	c10.4,7.4,23.2,8.6,34.3,14.6C622.8,178.2,629.6,166.6,622,162.4L622,162.4z"/>
<path class="st1" d="M611.9,116.1c13.6-2.5,27.7,18.8,36.6,27c13,11.8,23.3,25.5,32.2,40.5c4.4,7.5,16.1,0.7,11.7-6.8
	c-12-20.3-26.8-35-43.3-51.4c-11.8-11.8-22.4-25.7-40.8-22.3C599.8,104.6,603.4,117.6,611.9,116.1L611.9,116.1z"/>
<path class="st1" d="M651,216.1c7.9-16.6,26.7-29.1,43.8-34.5c4.1-1.3,2.4-7.8-1.8-6.5c-18.7,5.9-39.2,19.5-47.9,37.6
	C643.3,216.6,649.1,220,651,216.1L651,216.1z"/>
<path class="st1" d="M705.8,395.2c0,0.6,0,1.2,0,1.8c0,4.3,6.7,4.4,6.8,0c0-30.3,12.7-58.2,25.3-85.2c11.7-25.1,25.1-51.2,47.5-68.5
	c3.4-2.6,0-8.5-3.4-5.8c-23.4,18.1-37.6,44.6-49.9,70.9c-13.1,28.1-26.3,57.1-26.3,88.6c2.2,0,4.5,0,6.8,0c0-0.6,0-1.2,0-1.8
	C712.5,390.9,705.8,390.9,705.8,395.2L705.8,395.2z"/>
<path class="st1" d="M751.4,134.9c-4.4,20.5-5.1,42.1,0.8,62.3c4.6,15.8,15.3,36.5,30.2,44.9c3.8,2.1,7.2-3.7,3.4-5.8
	c-14.3-8.1-24.2-28.9-28-44.1c-4.6-18.2-3.8-37.3,0.1-55.5C758.8,132.4,752.3,130.6,751.4,134.9L751.4,134.9z"/>
<path class="st1" d="M786.5,243.8c13.9-16.4,14.1-41.3,9.2-61.2c-3-12.5-8.4-24.6-15.4-35.4c-3-4.6-6.3-9.7-10.5-13.4
	c-4.1-3.7-8.6-4.4-13.5-6.7c-3.9-1.8-7.3,4-3.4,5.8c4,1.9,8.5,2.8,12.2,5.6c3.9,3,6.7,8,9.4,12.1c6.1,9.3,10.7,19.4,13.8,30.1
	c5.1,18.2,6.5,42.9-6.5,58.3C779,242.3,783.7,247.1,786.5,243.8L786.5,243.8z"/>
<path class="st1" d="M958.4,215.7c-2.3,1.3-4.6,2.5-7,3.5c-13,5.8-27,8.9-39.5,16.2c-14.5,8.5-27.3,19.5-40.4,29.9
	c-11.4,9-23,18.7-30.6,31.2c-9.9,16.4-7.7,33.3-4.4,51.3c2.8,15.2,4.1,29.8-2.1,44.5c-4.1,9.7-10.5,17.9-18.1,25.1h-10
	c5.8-4.9,11.2-10.2,15.6-16.4c11.2-15.9,11.6-32.9,8.2-51.4c-2.5-13.4-5.1-26.9-1.8-40.4c6.2-25,29-41,48.1-56.2
	c11.4-9,22.7-18.2,35.5-25.3c5.3-2.9,10.8-5.1,16.5-7.1c5.2-1.9,10.5-3.6,15.7-5.6c1-0.4,2-0.8,2.9-1.2c2-0.8,3.9-1.7,5.8-2.7
	c0.8-0.4,1.6-0.9,2.4-1.3c1.2-0.7,2.3-0.6,3.2,0C960.2,211,961,214.2,958.4,215.7z"/>
<path class="st1" d="M980.5,319.4c-2.1,1.5-4.1,3.2-6,4.9c-0.1,0.1-0.2,0.1-0.2,0.2c-12.2,11-22.2,26.4-30.2,40.1
	c-9.4,16-15.7,34.2-16.1,52.8h-7c0.2-13.6,3.8-27.1,9-39.6c8.8-21.1,24.2-45.3,42.5-60.5c1.5-1.3,3.1-2.5,4.6-3.6
	C980.6,311,984,316.8,980.5,319.4z"/>
<path class="st1" d="M583.5,362.7c12.3-6.2,26.1-7.6,38.7-13c7.1-3.1,13.7-7.2,20.8-10.5c4-1.9,9-4.5,12.4-0.4
	c1.5,1.8,1.3,5.8,1.5,8c0.9,8.5,1.3,16.1,6.4,23.2c6.5,9,15.7,14.4,18.6,25.8c1.1,4.2,7.6,2.4,6.5-1.8
	c-3.5-13.7-15.1-18.9-21.4-30.6c-4.9-9-0.3-23.2-7.5-31s-19.8,0.8-26.8,4.4c-9.1,4.7-17.8,8.7-27.7,11.4c-8.6,2.3-16.9,4.6-24.9,8.6
	C576.2,358.8,579.6,364.6,583.5,362.7L583.5,362.7z"/>
<path class="st2" d="M1280.2,151.9c-3.4,0-7,0.5-10.8,1.5c-2.2,0.6-4.3,1.2-6.2,1.9c-2.1,0.7-4,1.8-5.9,2.8l-0.5,0.3
	c-3.8,2.1-7.3,4.7-10.8,7.4c-0.8,0.6-1.5,1.2-2.3,1.8c-2.4,1.8-4.9,3.7-7.1,5.8c-3.2,3.1-5.8,6.8-7.7,9.6c-1.9,2.8-3.5,6-5,10.1
	c-0.3,0.9-0.6,1.8-0.9,2.7c-0.5-0.6-1.1-1.3-1.7-1.9c-1.3-1.4-2.6-2.6-4-3.6c-2-1.4-4.2-2.9-6.6-3.9s-5.1-2-8-2.2
	c-0.6,0-1.1-0.1-1.7-0.1c-1.2,0-2.4,0.1-3.9,0.2c-5.7,0.6-9.8,2.1-13,4.8c-1.3,1.1-2.4,2.1-3.5,3.4c-1,1.1-1.9,2.2-2.8,3.6
	c-1.6,2.3-3.7,5.3-5,8.7c-1,2.7-1.6,5.3-1.8,7.9l-0.3-0.2c-1.1-0.6-2.2-1-3.4-1.4l-0.6-0.2c-1.7-0.6-3.6-1.1-5.4-1.5l-1-0.2
	c-2.1-0.5-4.3-0.8-6.1-0.9c-1.5-0.1-3-0.3-4.6-0.3c-0.9,0-1.7,0.1-2.5,0.2c-5.2,0.7-9.9,3.2-13.9,5.4c-1.9,1.1-3.7,2.4-6,4.3
	c-1.6,1.3-2.7,3-3.7,4.6c-0.7,1.2-1.2,2.6-1.7,3.9l-0.3,0.9c-0.7,2-1.1,4.3-1.4,6.1c-0.4,2.5-0.6,5-0.4,7.3c0.1,2.1,0.5,4.3,1.2,6.9
	c0.7,2.5,1.5,4.7,2.6,6.8c0.3,0.7,0.8,1.3,1.2,1.9l0.5,0.8c0.5,0.8,1,1.7,1.5,2.5c1.4,2.2,3,4.2,4.7,5.9c0.9,0.9,1.9,1.7,2.8,2.6
	c0.8,0.7,1.7,1.5,2.5,2.3c1.2,1.2,2.5,2.3,3.7,3.5l1.6,1.5c1.5,1.4,2.9,2.7,4.4,4l-0.4,0.1l-0.4,0.1c-1.3,0.2-2.6,0.3-3.9,0.3
	l-0.9,0.1c-2.3,0.2-4.7,0.8-7,1.9c-1.1,0.5-2.5,1.3-3.5,2.5s-1.5,2.5-1.4,3.8c0.1,1.6,0.9,2.8,1.8,3.8c1.7,2,4.3,2.8,6.8,3.5
	c2.8,0.8,5.7,1.6,8.6,2l1.2,0.2c1.1,0.2,2.2,0.3,3.2,0.4c1.4,0.2,2.9,0.3,4.3,0.4h0.6c1.7,0.2,3.3,0.5,5,0.8
	c2.2,0.4,4.3,0.7,6.4,0.9c2.8,0.2,5.8,0.4,8.8,0.4c0.9,0,1.8,0,2.7-0.1c1.2-0.1,2.4-0.2,3.6-0.3c0.8-0.1,1.6-0.1,2.4-0.2
	c1.4-0.1,2.7-0.1,4.1-0.2c0.8,0,1.6,0,2.4-0.1c2.2-0.1,4.3-0.4,6.4-0.6c2-0.2,4-0.5,6-0.6c1.3-0.1,2.5-0.1,3.8-0.2
	c2.8-0.1,5.7-0.3,8.5-0.5c5.1-0.4,9-0.9,12.8-1.6c4.7-0.8,9.4-1,13.3-1h2.3c4.2,0,7.6,0.1,10.9,0.3c4.1,0.3,7.4,0.4,10.5,0.4
	c0.8,0,1.6,0,2.4,0c5-0.1,9.9-0.5,13.7-0.8c3.5-0.3,7.1-0.3,10.6-0.3h2.8c2.1,0,4.3,0,6.4-0.1c1.3,0,2.7-0.1,4-0.2
	c0.9-0.1,1.7-0.1,2.6-0.2c1.9-0.1,3.8-0.1,5.6-0.2c2.6,0,5.3-0.1,8-0.3s5.4-0.6,8.1-0.9c1.6-0.2,3.2-0.4,4.8-0.6
	c5.5-0.6,10-1.4,14-2.3c2-0.5,4.2-1.3,6.7-2.4c1-0.4,1.9-0.9,2.9-1.4c2.4-1.4,3.8-3,4.4-5.2c0.3-1.2,0.1-2.6-0.7-4.2
	c-0.4-0.8-1-1.4-1.6-2.1c-1-1.1-2.3-2-3.5-2.7c-1.7-1.1-3.6-1.7-5.5-2.4l-1.2-0.4l0.3,0.1l-0.8-0.3l-3.2-1.2c-2.3-0.8-5-1.8-7.7-2.4
	c-0.9-0.2-1.7-0.4-2.6-0.6c-1.7-0.4-3.3-0.7-5-1.1l-1.3-0.3c-1.9-0.5-3.7-0.9-5.6-1.4c-2.1-0.5-4.3-1-6.5-1.8
	c-0.8-0.3-1.5-0.7-2.2-1c0.6-0.6,1.2-1.3,1.7-2c0.4-0.5,0.9-1,1.4-1.5c0.8-0.8,1.6-1.7,2.4-2.7c1.6-2.1,2.7-4.1,3.6-6.1
	c1.1-2.5,2.1-5.1,1.8-7.8c-0.2-2.5-1.4-5.1-2.5-7.1c-1.1-2.1-2.8-3.9-4.1-5.2c-0.5-0.5-1-1-1.6-1.5c-0.7-0.6-1.3-1.2-2-1.9
	c-0.9-1-1.9-1.9-2.7-3c-0.6-0.7-1.1-1.5-1.5-2.3c-0.3-0.8-0.6-1.6-0.8-2.6c-0.3-2.3-0.4-4.7-0.3-7.2c0.3-2.3,0.8-4.7,1.8-7.5
	l0.6-1.6c1.2-3.2,2.5-6.5,3-10c0.6-4.5-0.1-9.3-2-14c-1.7-4.1-4-7.9-6.7-11.4c-1.5-1.9-3-3.4-4.7-4.7s-3.7-2.4-6.4-3.6
	c-2.6-1.2-5-2.1-7.2-2.7c-2.4-0.6-4.8-0.8-6.8-1C1281.5,151.9,1280.8,151.9,1280.2,151.9L1280.2,151.9L1280.2,151.9z"/>
<path class="st2" d="M300.6,151.9c3.4,0,7,0.5,10.8,1.5c2.2,0.6,4.3,1.2,6.2,1.9c2.1,0.7,4,1.8,5.9,2.8l0.5,0.3
	c3.8,2.1,7.3,4.7,10.8,7.4c0.8,0.6,1.5,1.2,2.3,1.8c2.4,1.8,4.9,3.7,7.1,5.8c3.2,3.1,5.8,6.8,7.7,9.6c1.9,2.8,3.5,6,5,10.1
	c0.3,0.9,0.6,1.8,0.9,2.7c0.5-0.6,1.1-1.3,1.7-1.9c1.3-1.4,2.6-2.6,4-3.6c2-1.4,4.2-2.9,6.6-3.9s5.1-2,8-2.2c0.6,0,1.1-0.1,1.7-0.1
	c1.2,0,2.4,0.1,3.9,0.2c5.7,0.6,9.8,2.1,13,4.8c1.3,1.1,2.4,2.1,3.5,3.4c1,1.1,1.9,2.2,2.8,3.6c1.6,2.3,3.7,5.3,5,8.7
	c1,2.7,1.6,5.3,1.8,7.9l0.3-0.2c1.1-0.6,2.2-1,3.4-1.4l0.6-0.2c1.7-0.6,3.6-1.1,5.4-1.5l1-0.2c2.1-0.5,4.3-0.8,6.1-0.9
	c1.5-0.1,3-0.3,4.6-0.3c0.9,0,1.7,0.1,2.5,0.2c5.2,0.7,9.9,3.2,13.9,5.4c1.9,1.1,3.7,2.4,6,4.3c1.6,1.3,2.7,3,3.7,4.6
	c0.7,1.2,1.2,2.6,1.7,3.9l0.3,0.9c0.7,2,1.1,4.3,1.4,6.1c0.4,2.5,0.6,5,0.4,7.3c-0.1,2.1-0.5,4.3-1.2,6.9c-0.7,2.5-1.5,4.7-2.6,6.8
	c-0.3,0.7-0.8,1.3-1.2,1.9l-0.5,0.8c-0.5,0.8-1,1.7-1.5,2.5c-1.4,2.2-3,4.2-4.7,5.9c-0.9,0.9-1.9,1.7-2.8,2.6
	c-0.8,0.7-1.7,1.5-2.5,2.3c-1.2,1.2-2.5,2.3-3.7,3.5l-1.6,1.5c-1.5,1.4-2.9,2.7-4.4,4l0.4,0.1l0.4,0.1c1.3,0.2,2.6,0.3,3.9,0.3
	l0.9,0.1c2.3,0.2,4.7,0.8,7,1.9c1.1,0.5,2.5,1.3,3.5,2.5s1.5,2.5,1.4,3.8c-0.1,1.6-0.9,2.8-1.8,3.8c-1.7,2-4.3,2.8-6.8,3.5
	c-2.8,0.8-5.7,1.6-8.6,2l-1.2,0.2c-1.1,0.2-2.2,0.3-3.2,0.4c-1.4,0.2-2.9,0.3-4.3,0.4h-0.6c-1.7,0.2-3.3,0.5-5,0.8
	c-2.2,0.4-4.3,0.7-6.4,0.9c-2.8,0.2-5.8,0.4-8.8,0.4c-0.9,0-1.8,0-2.7-0.1c-1.2-0.1-2.4-0.2-3.6-0.3c-0.8-0.1-1.6-0.1-2.4-0.2
	c-1.4-0.1-2.7-0.1-4.1-0.2c-0.8,0-1.6,0-2.4-0.1c-2.2-0.1-4.3-0.4-6.4-0.6c-2-0.2-4-0.5-6-0.6c-1.3-0.1-2.5-0.1-3.8-0.2
	c-2.8-0.1-5.7-0.3-8.5-0.5c-5.1-0.4-9-0.9-12.8-1.6c-4.7-0.8-9.4-1-13.3-1h-2.3c-4.2,0-7.6,0.1-10.9,0.3c-4.1,0.3-7.4,0.4-10.5,0.4
	c-0.8,0-1.6,0-2.4,0c-5-0.1-9.9-0.5-13.7-0.8c-3.5-0.3-7.1-0.3-10.6-0.3H286c-2.1,0-4.3,0-6.4-0.1c-1.3,0-2.7-0.1-4-0.2
	c-0.9-0.1-1.7-0.1-2.6-0.2c-1.9-0.1-3.8-0.1-5.6-0.2c-2.6,0-5.3-0.1-8-0.3s-5.4-0.6-8.1-0.9c-1.6-0.2-3.2-0.4-4.8-0.6
	c-5.5-0.6-10-1.4-14-2.3c-2-0.5-4.2-1.3-6.7-2.4c-1-0.4-1.9-0.9-2.9-1.4c-2.4-1.4-3.8-3-4.4-5.2c-0.3-1.2-0.1-2.6,0.7-4.2
	c0.4-0.8,1-1.4,1.6-2.1c1-1.1,2.3-2,3.5-2.7c1.7-1.1,3.6-1.7,5.5-2.4l1.2-0.4l-0.3,0.1l0.8-0.3l3.2-1.2c2.3-0.8,5-1.8,7.7-2.4
	c0.9-0.2,1.7-0.4,2.6-0.6c1.7-0.4,3.3-0.7,5-1.1l1.3-0.3c1.9-0.5,3.7-0.9,5.6-1.4c2.1-0.5,4.3-1,6.5-1.8c0.8-0.3,1.5-0.7,2.2-1
	c-0.6-0.6-1.2-1.3-1.7-2c-0.4-0.5-0.9-1-1.4-1.5c-0.8-0.8-1.6-1.7-2.4-2.7c-1.6-2.1-2.7-4.1-3.6-6.1c-1.1-2.5-2.1-5.1-1.8-7.8
	c0.2-2.5,1.4-5.1,2.5-7.1c1.1-2.1,2.8-3.9,4.1-5.2c0.5-0.5,1-1,1.6-1.5c0.7-0.6,1.3-1.2,2-1.9c0.9-1,1.9-1.9,2.7-3
	c0.6-0.7,1.1-1.5,1.5-2.3c0.3-0.8,0.6-1.6,0.8-2.6c0.3-2.3,0.4-4.7,0.3-7.2c-0.3-2.3-0.8-4.7-1.8-7.5l-0.6-1.6
	c-1.2-3.2-2.5-6.5-3-10c-0.6-4.5,0.1-9.3,2-14c1.7-4.1,4-7.9,6.7-11.4c1.5-1.9,3-3.4,4.7-4.7s3.7-2.4,6.4-3.6c2.6-1.2,5-2.1,7.2-2.7
	c2.4-0.6,4.8-0.8,6.8-1C299.3,151.9,299.9,151.9,300.6,151.9L300.6,151.9L300.6,151.9z"/>
</svg>
