<svg id="Layer_1" data-name="Layer 1" xmlns="http://www.w3.org/2000/svg" viewBox="0 0 360.25 234.31"><defs><style>.cls-1{fill:#3d3d3b;}</style></defs><title>logo1</title><path class="cls-1" d="M416.14,410.51s-50.37,10.07-55.09-33.57S356.36,258,355.89,250.41c0,0,2.77-44.88-9.83-57.13-9.81-9.54-30.76-11-43.48-1.2-15.8,12.19-9.19,49.14-14.26,59.76-5.75,12-16.18,14.86-30.79,8-23.52-14.15-10.19-58.07,23.33-70.47C321,174.46,386,173.6,389.08,249.87,391.11,299.4,386.15,409,416.14,410.51Z" transform="translate(-232.96 -179.89)"/><path class="cls-1" d="M404,413.13c-8.78,0-20.6-1.56-30-8.45-8.36-6.13-13.26-15.4-14.58-27.57-3.63-33.62-4.46-86.56-4.86-112-.12-7.49-.2-12.89-.31-14.6v-.19c0-.45,2.59-44.3-9.35-55.91-8.76-8.52-28.76-10.84-41.4-1.08-9.62,7.43-10.46,25.3-11.14,39.66-.39,8.31-.72,15.49-2.66,19.54-4.31,9-13.52,17.86-32.89,8.69l-.14-.07c-9.08-5.46-13.62-15.64-12.47-27.93,1.5-16,13.43-37,36.06-45.39,24.4-9,58.95-13,82.7,2.78,17.21,11.47,26.52,31.39,27.66,59.2.36,8.75.5,19.52.65,30.91.67,50.58,1.69,127,24.91,128.2l.22,3.14A68.3,68.3,0,0,1,404,413.13ZM357.48,250.41c.1,1.87.18,7,.3,14.65.4,25.4,1.23,78.24,4.85,111.71,1.21,11.24,5.69,19.77,13.29,25.35,10.55,7.74,24.85,8.18,33.16,7.62-19.39-13-20.24-76.73-20.93-129-.15-11.38-.3-22.12-.65-30.83-1.1-26.74-9.93-45.81-26.25-56.69-22.76-15.16-56.17-11.21-79.84-2.45-21.35,7.91-32.59,27.68-34,42.71-1,11.16,2.82,20,10.87,24.88,13.62,6.42,23.25,4,28.61-7.23,1.66-3.47,2-10.68,2.35-18.32.71-15,1.59-33.69,12.37-42,12.89-10,34.61-9.33,45.56,1.32C360,204.59,357.65,247.48,357.48,250.41Z" transform="translate(-232.96 -179.89)"/><path class="cls-1" d="M537.81,378c4.72,43.64,55.09,33.57,55.09,33.57-31.63-2.11-24.19-169.84-24.19-169.84.88-31.35,5.23-55.85,17.67-57.08,0,0-50.88-8-53.1,38.6C533.28,223.27,533.1,334.5,537.81,378Z" transform="translate(-232.96 -179.89)"/><path class="cls-1" d="M580.79,414.21c-8.78,0-20.6-1.56-30-8.45-8.35-6.13-13.25-15.4-14.57-27.57h0c-4.66-43.11-4.54-153.8-4.54-154.92.64-13.5,5.29-23.83,13.83-30.78,16.11-13.14,40.09-9.55,41.1-9.39l-.09,3.14c-9.76,1-15.22,19.66-16.23,55.55-2,46.25-2,166.57,22.71,168.22l.2,3.13A67.27,67.27,0,0,1,580.79,414.21Zm-41.4-36.36c1.21,11.24,5.68,19.76,13.28,25.34,10.92,8,25.93,8.21,34.07,7.57-10.48-8.14-17-36.57-19.38-84.81-2.07-41.78-.25-83.85-.23-84.27.88-31.25,5-49.41,12.79-55.91-8-.21-22.17.83-32.41,9.19-7.8,6.36-12,15.91-12.65,28.39,0,1-.12,111.56,4.53,154.5Z" transform="translate(-232.96 -179.89)"/><path class="cls-1" d="M360.81,363.12C328.75,442.69,249,410,237.46,361.72,217.44,278.15,307.68,243,346.28,301,326.62,288,280,288.44,271,322.47c-13.5,51.39,51.84,84.82,89.77,40.65Z" transform="translate(-232.96 -179.89)"/><path class="cls-1" d="M301.28,412.76c-1.47,0-2.94-.05-4.43-.16-28.34-2.1-54.54-23.81-60.93-50.51-11.34-47.31,12-76,35.38-86.22,23.21-10.12,55.81-6.54,76.3,24.26l-2.19,2.2c-10.75-7.11-31.91-11-50-4.07-8.32,3.17-19.05,10-22.88,24.61-5.8,22.1,3.26,43.09,23.09,53.5,16.44,8.62,43,10.05,63.94-14.28l2.68,1.62C349.62,395.12,327.56,412.76,301.28,412.76ZM295.64,274a58.06,58.06,0,0,0-23.07,4.79C250.29,288.5,228.13,316,239,361.35c6.09,25.41,31.06,46.08,58.08,48.09,14.7,1.08,41-2.82,58.69-38.91-19.86,17.78-44.57,17.57-61.58,8.65-21.19-11.12-30.88-33.54-24.69-57.11,3.31-12.58,11.89-21.84,24.82-26.78,14.31-5.46,33-4.86,46.54,1C328,280.44,311.37,274,295.64,274Z" transform="translate(-232.96 -179.89)"/><path class="cls-1" d="M518.73,304.05c5.73,15-14.14,78.89-73.84,64.66-19.52-4.65-31.72,17.13-21.39,31.59,32,38,109.78-22.71,98-99.29" transform="translate(-232.96 -179.89)"/><path class="cls-1" d="M448.59,413.55a33.37,33.37,0,0,1-26.3-12.23l-.08-.1a22,22,0,0,1-.17-25.3c5.1-7.59,14-10.95,23.22-8.75,28.68,6.83,46.4-5.08,56.22-16.28,14-16,18.77-38.44,15.77-46.28l3-1.13c-.1-.74-.2-1.49-.32-2.23l3.14-.49a105.23,105.23,0,0,1-12.2,67.42c-10.15,18.34-25.25,33.08-41.43,40.44A50.61,50.61,0,0,1,448.59,413.55Zm-23.83-14.23c10.13,12,25.91,14.32,43.32,6.41,28.31-12.87,53.91-49.41,53-91.44-1.06,11.07-6.52,26.53-17.18,38.69-10.39,11.85-29.12,24.48-59.33,17.28-8-1.91-15.44.86-19.86,7.43A18.86,18.86,0,0,0,424.76,399.32Z" transform="translate(-232.96 -179.89)"/><path class="cls-1" d="M520.58,302.84c-57.87,38.51-106.36-2.11-106.18-49.09.29-76.58,100.52-92.65,121.87-25.64-14.46-18.9-46.51-34.35-74-7.45-36.72,35.91,3.39,98,58.32,82.18Z" transform="translate(-232.96 -179.89)"/><path class="cls-1" d="M475.13,319.82a59.49,59.49,0,0,1-28.54-7.17c-20.61-11.09-33.87-34.21-33.78-58.9.16-41.42,28.52-64.3,56.55-68.6,26-4,57.3,7.59,68.42,42.48L535,229.08c-7.24-9.47-20.82-20-37.2-21.19-12.49-.89-24.09,3.78-34.44,13.9-18.43,18-15.7,40.4-7,55.32,10.58,18.16,34.4,32.69,63.77,24.21l1.32,2.84C505.83,314.56,490,319.82,475.13,319.82Zm4.12-132.25a62.42,62.42,0,0,0-9.41.71c-26.7,4.1-53.7,25.94-53.85,65.48-.09,23.54,12.51,45.56,32.1,56.1,11.22,6,33.73,13,63.65-3.5a57.47,57.47,0,0,1-58.11-27.65c-11.69-20-8.74-43.29,7.52-59.19C472,208.89,484.77,203.78,498,204.73c13.67,1,25.47,8.05,33.62,15.89C520.89,197.38,499.46,187.57,479.25,187.57Z" transform="translate(-232.96 -179.89)"/></svg>